<svg viewBox="0 0 1646.49 521.66" xmlns="http://www.w3.org/2000/svg" xmlns:xlink="http://www.w3.org/1999/xlink"><linearGradient id="a" gradientUnits="userSpaceOnUse" x1="-464.06" x2="1088.69" y1="210.88" y2="296.46"><stop offset="0" stop-color="#020066"/><stop offset="1" stop-color="#01acce"/></linearGradient><path d="m242.63 190.18v64.8h-34.8l1.6-27.6c-2-.4-4.4-.4-6.4-.4-24 0-42.4 20.4-42.4 53.6v74l50-2v34.4h-122v-33.2l27.2.8v-133.6l-27.6 1.2v-33.2h72.4v33.6c7.6-18.4 25.2-36.8 54-36.8 8.4 0 14.8.8 28 4.4zm20 97.59c0-55.2 28.8-105.2 91.6-105.2s78 44.4 78 90.4c0 5.2-.4 14.8-.8 20h-124.4c0 36 14 68.8 58.4 68.8 22.4 0 31.6-4.4 49.2-12.4l10.4 26c-15.6 8.4-39.2 18.4-71.6 18.4-65.2 0-90.8-41.6-90.8-106zm125.6-24.39c0-20.4-4.4-47.2-39.6-47.2-32.4 0-41.6 29.6-41.6 47.2zm204-72.4v57.2h-34.4l2.8-28.8c-6.8-3.6-15.6-6.4-27.2-6.4-17.6 0-32 5.6-32 22.8 0 40.4 101.2 18.8 101.2 94.4 0 39.2-29.2 63.6-80.8 63.6-23.2 0-45.6-4.4-61.6-9.6v-57.2h34.4l-1.6 29.2c6.4 4.8 18.8 8 31.6 8 18.8 0 35.6-4.4 35.6-24.8 0-43.2-99.6-21.2-99.6-95.2 0-33.6 27.2-61.6 76.4-61.6 22 0 37.6 3.2 55.2 8.4zm100 129.19c0 28.8 3.2 44 24 44 13.6 0 24-4.8 28.8-8l10.4 25.6c-11.2 6.8-30.8 12-50.4 12-57.6 0-57.6-38.8-57.6-73.6v-99.2l-28.8 1.2v-33.2h28.8v-60h44.8v60h46.4v33.2l-46.4-1.2zm164.8-137.59c31.2 0 90 6.4 90 100 0 74.8-43.2 111.2-96.4 111.2s-88.4-30-88.4-102.8c0-84.4 56.4-108.4 94.8-108.4zm43.2 105.6c0-44.8-12.4-72.8-46.8-72.8s-46 28-46 66.8c0 35.6 6.8 78.8 46.8 78.8 32.8 0 46-26.8 46-72.8zm225.2-98v64.8h-34.8l1.6-27.6c-2-.4-4.4-.4-6.4-.4-24 0-42.4 20.4-42.4 53.6v74l50-2v34.4h-122v-33.2l27.2.8v-133.6l-27.6 1.2v-33.2h72.4v33.6c7.6-18.4 25.2-36.8 54-36.8 8.4 0 14.8.8 28 4.4z" fill="url(#a)"/><g fill="none" stroke="#01acce" stroke-linecap="round" stroke-linejoin="round" stroke-width="8"><path d="m1224.62 448.37c-29.04 0-50.89-7.3-64.94-21.68-12.82-13.13-19.03-32.05-18.46-56.23.07-2.71 2.28-4.88 5-4.88h36.4c2.76 0 5 2.24 5 5 0 27.02 10 36.6 38.2 36.6s40.6-14.07 40.6-43c0-25.89-12.15-38.42-39.4-40.62-10.22-.73-19.03-1.18-31.2-1.18-2.76 0-5-2.24-5-5v-31.2c0-2.76 2.24-5 5-5 12.03 0 25.66 0 34.12-1.15 21.05-2.48 31.68-14.4 31.68-35.45 0-23.33-10.23-34.2-32.2-34.2-23.83 0-35.08 11.78-35.4 37.06-.04 2.74-2.26 4.94-5 4.94h-36.4c-2.67 0-4.87-2.1-4.99-4.76-1.05-21.93 5.01-39.97 18.02-53.62 15.01-15.75 38.8-24.42 66.98-24.42 24.64 0 45.11 6.25 59.21 18.07 14.25 11.95 21.79 29.29 21.79 50.13 0 17.51-5.75 32.72-17.1 45.21-5.88 6.47-13.29 12.16-21.85 16.81 8.58 2.82 17.81 7.52 25.8 15.36 12.44 12.2 18.75 28.83 18.75 49.42 0 50.91-37.13 83.8-94.6 83.8z"/><path d="m1426.22 398.77c-27.4 0-48.87-9.05-63.83-26.89-15.11-18.02-22.77-44.3-22.77-78.11 0-37.83 9.12-67.39 27.09-87.85 16.3-18.55 39.09-28.35 65.9-28.35 19.95 0 36.03 6.53 46.2 14.61v-66.39l-21.98.97c-.07 0-.15 0-.22 0-1.29 0-2.52-.5-3.46-1.39-.99-.94-1.54-2.25-1.54-3.61v-33.2c0-2.76 2.24-5 5-5h72c2.76 0 5 2.24 5 5v261.84l17.86-1.23c.12 0 .23-.01.34-.01 1.26 0 2.48.48 3.41 1.34 1.01.95 1.59 2.27 1.59 3.66v32.8c0 2.76-2.24 5-5 5h-60.4c-2.76 0-5-2.24-5-5v-12.78c-14.66 15.43-36.53 24.58-60.2 24.58zm13.2-175.59c-13.45 0-24.02 4.6-31.43 13.66-8.74 10.71-13.17 27.57-13.17 50.14 0 14.92.84 33.8 7.36 47.39 6.55 13.65 17.62 20.01 34.84 20.01 20.55 0 41.8-15.19 41.8-40.6v-72.7c-3.43-4.17-16.46-17.9-39.4-17.9z"/></g></svg>