<svg viewBox="0 0 579.46 108.31" xmlns="http://www.w3.org/2000/svg"><g fill="#003366"><path d="m100.45 343.45h-76.78a15.77 15.77 0 0 0 -15.76 15.77v76.78a15.77 15.77 0 0 0 15.76 15.77h76.78a15.77 15.77 0 0 0 15.77-15.77v-76.78a15.77 15.77 0 0 0 -15.77-15.77zm-38.39 92.49a38.34 38.34 0 1 1 38.34-38.34 38.33 38.33 0 0 1 -38.34 38.34z" transform="translate(-7.91 -343.45)"/><path d="m87 396.49a33.5 33.5 0 0 1 -23.78-23.85 1.15 1.15 0 0 0 -2.23.08 33.5 33.5 0 0 1 -23.89 23.79 1.15 1.15 0 0 0 .08 2.21 33.51 33.51 0 0 1 23.82 23.82 1.15 1.15 0 0 0 2.23-.06 33.52 33.52 0 0 1 23.77-23.76 1.18 1.18 0 0 0 .85-1.12 1.17 1.17 0 0 0 -.85-1.11z" transform="translate(-7.91 -343.45)"/><path d="m167.62 60.49-18.25-44.26h-19.39v74.73h14.86v-49.25l15.18 38.01-.02.04 1.78 4.13h11.39l17.07-42.36v49.43h14.86v-74.73h-19.16z"/><path d="m211.97 35.78h14.86v55.18h-14.86z"/><g transform="translate(-7.91 -343.45)"><path d="m290.63 391v43.43h14.86v-37.74c0-2.8 5.42-4.39 15.26-4.47h1.1v-12.93h-1.11c-14.96.13-30.11 4.18-30.11 11.71z"/><path d="m501.18 391v43.43h14.82v-37.74c0-2.8 5.42-4.39 15.26-4.47h1.1v-12.93h-1.11c-14.92.13-30.07 4.18-30.07 11.71z"/><path d="m423.14 359.61h-39v74.8h14.86v-28.24h24.1c14.15 0 19.28-13.7 19.28-22.91.04-17.35-11.49-23.65-19.24-23.65zm-24.14 12.93h17c6.74 0 11.51.77 11.51 10.72 0 9.25-4.25 10-10.26 10h-18.25z"/><path d="m267.16 391.9a56.68 56.68 0 0 1 13.73 2.25l1.08.31 3.24-12.32-.92-.37a46.53 46.53 0 0 0 -17.05-3h-.85c-17.07 0-25.73 9.74-25.73 28.95 0 24.83 14.49 27.78 25.38 27.84h.67.29.29a47 47 0 0 0 17.05-3l.92-.37-3.26-12.41-1.08.31a56.28 56.28 0 0 1 -13.73 2.25c-9.77 0-11.56-4.93-11.56-14.66-.03-11.21 3.37-15.78 11.53-15.78z"/><path d="m571.12 392.22v-12.93h-14.46v-14.92l-14.87 6.09v8.83h-4.13v12.93h4.13v27c0 8.78 7.1 15.16 16.87 15.16h12.46v-12.89h-6.12c-8.31 0-8.31-4-8.31-5.27v-24z"/><path d="m227.31 359.68a7.87 7.87 0 1 0 7.86 7.86 7.88 7.88 0 0 0 -7.86-7.86z"/><path d="m471.22 378.69h-1.45c-4.07 0-24.37 1.1-24.37 22.89v11c0 21.79 20.3 22.89 24.37 22.89h1.45c4.06 0 24.37-1.1 24.37-22.89v-11c-0-21.79-20.31-22.89-24.37-22.89zm10.19 22.89v11c0 6.14-4.18 10-10.92 10s-10.92-3.82-10.92-10v-11c0-6.14 4.19-10 10.92-10s10.92 3.86 10.92 10z"/><path d="m352.16 378.69h-1.45c-4.07 0-24.37 1.1-24.37 22.89v11c0 21.79 20.3 22.89 24.37 22.89h1.45c4.07 0 24.37-1.1 24.37-22.89v-11c-0-21.79-20.3-22.89-24.37-22.89zm10.19 22.89v11c0 6.14-4.18 10-10.92 10s-10.92-3.82-10.92-10v-11c0-6.14 4.19-10 10.92-10s10.92 3.86 10.92 10z"/><path d="m579.25 359.7a8.13 8.13 0 1 1 8.12-8.12 8.14 8.14 0 0 1 -8.12 8.12zm0-14.91a6.69 6.69 0 1 0 6.69 6.69 6.7 6.7 0 0 0 -6.69-6.69z"/><path d="m577.73 352.18v3.91h-1.28v-9.23h2.43a4.38 4.38 0 0 1 2.62.66 2.29 2.29 0 0 1 .89 2 2.37 2.37 0 0 1 -.5 1.56 2.93 2.93 0 0 1 -1.5.91l2.5 4.14h-1.52l-2.21-3.91zm2.8-1.38a1.61 1.61 0 0 0 .51-1.32 1.44 1.44 0 0 0 -.52-1.24 2.78 2.78 0 0 0 -1.66-.39h-1.13v3.35h1.27a2.42 2.42 0 0 0 1.53-.4z"/></g></g></svg>